<?xml version="1.0"?>
<svg xmlns="http://www.w3.org/2000/svg" xmlns:xlink="http://www.w3.org/1999/xlink" version="1.1" id="Capa_1" x="0px" y="0px" viewBox="0 0 512 512" style="enable-background:new 0 0 512 512;" xml:space="preserve" width="512px" height="512px" class=""><g><g>
	<path d="M507.754,141.973l0.067-0.071c-0.027,0.029-0.049,0.052-0.073,0.077L507.754,141.973z" data-original="#000000" class="active-path" data-old_color="#000000" fill="#C5A60A"/>
	<path d="M507.571,142.163c0.027-0.027,0.094-0.097,0.177-0.184l-0.252,0.252C507.521,142.207,507.547,142.187,507.571,142.163z" data-original="#000000" class="active-path" data-old_color="#000000" fill="#C5A60A"/>
	<path d="M507.821,141.902c0.026-0.027,0.054-0.058,0.084-0.088L507.821,141.902z" data-original="#000000" class="active-path" data-old_color="#000000" fill="#C5A60A"/>
	<path d="M512,137.435c0,0-3.05,3.271-4.095,4.378l4.095-4.333V137.435z" data-original="#000000" class="active-path" data-old_color="#000000" fill="#C5A60A"/>
	<path d="M486.358,142.157L376.933,32.678c-9.116-9.12-21.236-14.144-34.128-14.144c-12.891,0-25.011,5.024-34.128,14.144   c-18.825,18.834-18.825,49.478,0,68.312l113.028,113.082c3.141,3.143,7.317,4.874,11.759,4.874c4.442,0,8.618-1.73,11.76-4.874   c6.49-6.492,6.49-17.058,0-23.55L332.563,77.805c-5.856-5.859-5.854-15.357,0.005-21.214c5.86-5.855,15.357-5.855,21.213,0.006   l119.666,119.707l34.049-34.073C501.631,148.015,492.19,147.993,486.358,142.157z" data-original="#000000" class="active-path" data-old_color="#000000" fill="#C5A60A"/>
	<path d="M261.63,309.699l62.619-62.649l-90.223-90.251c-17.198-17.203-26.996-39.877-27.763-64.095l-35.491,35.508   c-24.653,25.371-24.419,66.175,0.641,91.242L261.63,309.699z" data-original="#000000" class="active-path" data-old_color="#000000" fill="#C5A60A"/>
	<path d="M433.465,248.945c-12.458,0-24.169-4.854-32.978-13.665L287.458,122.197c-30.512-30.528-30.512-80.199,0-110.727   c0.002-0.002,0.004-0.004,0.005-0.005c-0.002,0.002-0.003,0.003-0.005,0.004l-32.872,32.889   c-24.623,25.357-24.361,66.205,0.657,91.23l100.824,100.855c5.855,5.856,5.855,15.351,0.001,21.208l-83.827,83.868   c-2.814,2.814-6.629,4.396-10.609,4.396c-3.979,0-7.795-1.581-10.609-4.396L150.197,240.664   c-17.638-17.643-26.831-40.622-27.634-63.848c-20.426,25.494-18.832,62.973,4.769,86.574l3.656,3.656   c5.857,5.857,5.857,15.355-0.002,21.213c-2.929,2.929-6.768,4.393-10.606,4.393c-3.839,0-7.678-1.465-10.608-4.395l-3.655-3.655   c-17.552-17.552-26.746-40.36-27.645-63.439c-20.208,25.478-18.52,62.881,4.955,86.357l3.462,3.463   c5.857,5.858,5.857,15.355-0.002,21.213c-2.929,2.929-6.767,4.393-10.606,4.393c-3.839,0-7.678-1.465-10.607-4.395l-3.462-3.462   c-17.208-17.207-27.01-39.891-27.773-64.121l-14.894,14.901c-26.064,26.077-26.064,68.51,0,94.587l106.791,106.844   c12.629,12.634,29.42,19.593,47.281,19.593c17.861,0,34.652-6.958,47.281-19.593L466.443,235.28   c0.001-0.001,0.002-0.002,0.003-0.004c-0.001,0.002-0.003,0.003-0.004,0.004C457.634,244.092,445.922,248.945,433.465,248.945z    M184.223,429.581c-2.929,2.927-6.767,4.391-10.604,4.391c-3.84,0-7.68-1.465-10.609-4.395l-53.742-53.769   c-5.856-5.859-5.854-15.357,0.005-21.214c5.859-5.855,15.356-5.855,21.213,0.006l53.742,53.768   C190.085,414.226,190.083,423.724,184.223,429.581z M228.23,385.554c-2.929,2.927-6.767,4.391-10.604,4.391   c-3.84,0-7.68-1.465-10.609-4.396l-53.743-53.769c-5.856-5.859-5.854-15.357,0.005-21.214c5.86-5.855,15.356-5.855,21.213,0.005   l53.743,53.768C234.091,370.199,234.089,379.697,228.23,385.554z" data-original="#000000" class="active-path" data-old_color="#000000" fill="#C5A60A"/>
</g></g> </svg>
