<?xml version="1.0"?>
<svg xmlns="http://www.w3.org/2000/svg" height="512px" viewBox="0 0 60 60" width="512px" class=""><g><g id="Page-1" fill="none" fill-rule="evenodd"><g id="001---Plastic" fill="rgb(0,0,0)" fill-rule="nonzero"><path id="Shape" d="m57 0h-6c-1.6568542 0-3 1.34314575-3 3v8c.0009903 2.2862082-1.5514919 4.2807853-3.768 4.841-.4110719.1048431-.8435598-.0610975-1.079-.414l-.633-.955c-.5537917-.9023395-1.5313669-1.4579344-2.59-1.472h-5.86c-1.0017198-.0030613-1.9378186.4978699-2.491 1.333l-.732 1.1c-.2359942.3533497-.6695176.518979-1.081.413-2.2175224-.5614437-3.7695138-2.5585096-3.766-4.846v-8c0-1.65685425-1.3431458-3-3-3h-6c-1.6568542 0-3 1.34314575-3 3v3h-5c-1.65685425 0-3 1.34314575-3 3v3c0 1.1045695.8954305 2 2 2v1c.00067189.2734706-.10722793.5360269-.3.73-.16909377.1725103-.40043743.2698044-.642.27h-.058c-3.86599325 0-7 3.1340068-7 7v5c-.00065968.7384319.27222905 1.4509351.766 2-.49377095.5490649-.76665968 1.2615681-.766 2v4c-.00065968.7384319.27222905 1.4509351.766 2-.49377095.5490649-.76665968 1.2615681-.766 2v4c-.00065968.7384319.27222905 1.4509351.766 2-.49377095.5490649-.76665968 1.2615681-.766 2v7c.00330612 2.7600532 2.23994685 4.9966939 5 5h48c3.8641657-.0044086 6.9955914-3.1358343 7-7v-50c0-1.65685425-1.3431458-3-3-3zm-49 9c0-.55228475.44771525-1 1-1h8c.5522847 0 1 .44771525 1 1v3h-10zm-6 14c-.00411896-1.3315555.52700336-2.6089155 1.474-3.545.94604239-.9371459 2.22538114-1.4604627 3.557-1.455.7791204.0246599 1.5317672-.2841836 2.069-.849.57323178-.5693771.89694628-1.3430547.9-2.151v-1h6v1c.0030537.8079453.3267682 1.5816229.9 2.151.5406974.542045 1.2743866.8473892 2.04.849h.06c1.3260824 0 2.597852.5267842 3.5355339 1.4644661s1.4644661 2.2094515 1.4644661 3.5355339v3h-5c-1.6568542 0-3 1.3431458-3 3h-13c-.55228475 0-1-.4477153-1-1zm42 7h-25c-.5522847 0-1-.4477153-1-1s.4477153-1 1-1h26c.5522847 0 1 .4477153 1 1s-.4477153 1-1 1zm-42 2c0-.5522847.44771525-1 1-1h13.78c.5642399.6337052 1.3715062.9973386 2.22 1h.133l.714 5h-16.847c-.55228475 0-1-.4477153-1-1zm0 8c0-.5522847.44771525-1 1-1h17.133l.857 6h-17.99c-.55228475 0-1-.4477153-1-1zm0 15v-7c0-.5522847.44771525-1 1-1h18.276l1.489 10.424c.0293744.1963807.0782837.3893378.146.576h-17.911c-1.65685425 0-3-1.3431458-3-3zm28 3h-4.266c-.4974285-.0005022-.9188628-.3665407-.989-.859l-3.592-25.141h21.734l-2.687 25.106c-.0544137.5105219-.4865946.8968916-1 .894zm28-5c-.0033061 2.7600532-2.2399468 4.9966939-5 5h-10.978c.0810711-.2198173.1361129-.4483748.164-.681l2.714-25.319h.1c1.6568542 0 3-1.3431458 3-3s-1.3431458-3-3-3h-19v-3c.0053892-1.8644752-.7382669-3.6529971-2.064-4.964-1.3342117-1.3002851-3.1219833-2.0304562-4.985-2.036-.243296.001152-.4766936-.0962473-.647-.27-.1942388-.1933183-.3036109-.4559553-.304-.73v-1c1.1045695 0 2-.8954305 2-2v-3c0-1.65685425-1.3431458-3-3-3h-1v-3c0-.55228475.4477153-1 1-1h6c.5522847 0 1 .44771525 1 1v8c-.001919 3.2001635 2.169911 5.9928106 5.272 6.779 1.2338445.3154625 2.5323986-.1824703 3.239-1.242l.734-1.1c.1839955-.2751547.4940032-.4393649.825-.437h5.86c.3899125.0173318.741823.238891.926.583l.63.949c.7053736 1.0618211 2.0047507 1.5619209 3.24 1.247 3.1028832-.7854161 5.2756874-3.5782564 5.274-6.779v-8c0-.55228475.4477153-1 1-1h6c.5522847 0 1 .44771525 1 1z" data-original="#000000" class="active-path" data-old_color="#000000" fill="#C5A60A"/></g></g></g> </svg>
